<svg width="20" height="20" viewBox="0 0 20 20" fill="none" xmlns="http://www.w3.org/2000/svg">
<g clip-path="url(#clip0_1_415)">
<path d="M18.504 8.99105L17.9887 6.93006C18.1296 6.90014 18.2353 6.77516 18.2353 6.62543V6.29313C18.2353 5.57163 17.6483 4.98468 16.9269 4.98468H14.58V4.29925C14.58 3.94421 14.2911 3.6554 13.9361 3.6554H1.97305C1.61802 3.6554 1.3292 3.94421 1.3292 4.29925V9.94847C1.3292 10.1205 1.46868 10.26 1.64075 10.26C1.81279 10.26 1.9523 10.1205 1.9523 9.94847V4.29925C1.9523 4.28778 1.96159 4.27849 1.97305 4.27849H13.9361C13.9475 4.27849 13.9568 4.28778 13.9568 4.29925V9.94855C13.9568 10.1206 14.0963 10.2601 14.2684 10.2601C14.4404 10.2601 14.5799 10.1206 14.5799 9.94855V9.59538H18.255C18.2553 9.59538 18.2555 9.59546 18.2558 9.59546C18.2561 9.59546 18.2564 9.59542 18.2566 9.59542C18.7089 9.59573 19.0929 9.89255 19.2247 10.3016H18.256C18.084 10.3016 17.9445 10.441 17.9445 10.6131V11.2777C17.9445 11.816 18.3824 12.2539 18.9206 12.2539H19.2737V13.6246H18.4591C18.1915 12.8519 17.457 12.2954 16.5945 12.2954C15.732 12.2954 14.9974 12.8519 14.7298 13.6246H14.5798V11.2777C14.5798 11.1056 14.4404 10.9661 14.2683 10.9661C14.0963 10.9661 13.9567 11.1056 13.9567 11.2777V13.6245H7.49307C7.22547 12.8519 6.49096 12.2953 5.62844 12.2953C4.76592 12.2953 4.03137 12.8519 3.76381 13.6245H1.97305C1.96159 13.6245 1.9523 13.6152 1.9523 13.6038V12.9184H3.30229C3.47433 12.9184 3.61384 12.7789 3.61384 12.6068C3.61384 12.4348 3.47437 12.2953 3.30229 12.2953H0.311549C0.139511 12.2953 0 12.4348 0 12.6068C0 12.7789 0.139472 12.9184 0.311549 12.9184H1.32924V13.6038C1.32924 13.9588 1.61806 14.2476 1.97309 14.2476H3.65593C3.65585 14.2545 3.65539 14.2614 3.65539 14.2684C3.65539 15.3563 4.54052 16.2414 5.62844 16.2414C6.71635 16.2414 7.60149 15.3563 7.60149 14.2684C7.60149 14.2614 7.60102 14.2545 7.60095 14.2476H14.622C14.6219 14.2545 14.6214 14.2614 14.6214 14.2684C14.6214 15.3563 15.5066 16.2414 16.5945 16.2414C17.6824 16.2414 18.5675 15.3563 18.5675 14.2684C18.5675 14.2614 18.5671 14.2545 18.567 14.2476H19.5853C19.7573 14.2476 19.8968 14.1082 19.8968 13.9361V10.613C19.8968 9.7926 19.2915 9.11094 18.504 8.99105ZM14.58 5.60773H16.9269C17.3048 5.60773 17.6122 5.9152 17.6122 6.29313V6.31388H14.58V5.60773ZM14.58 8.97232V6.93694H17.3482L17.8571 8.97232H14.58ZM5.62844 15.6185C4.88405 15.6185 4.27844 15.0129 4.27844 14.2685C4.27844 13.524 4.88405 12.9185 5.62844 12.9185C6.37282 12.9185 6.97843 13.524 6.97843 14.2685C6.97843 15.0129 6.37282 15.6185 5.62844 15.6185ZM16.5946 15.6185C15.8502 15.6185 15.2446 15.0129 15.2446 14.2685C15.2446 13.524 15.8502 12.9185 16.5946 12.9185C17.3389 12.9185 17.9445 13.524 17.9445 14.2685C17.9445 15.0129 17.3389 15.6185 16.5946 15.6185ZM19.2738 11.6308H18.9207C18.726 11.6308 18.5676 11.4724 18.5676 11.2777V10.9246H19.2738V11.6308H19.2738Z" fill="#EC2830"/>
<path d="M5.62847 13.6246C5.27343 13.6246 4.98462 13.9134 4.98462 14.2685C4.98462 14.6235 5.27343 14.9123 5.62847 14.9123C5.9835 14.9123 6.27232 14.6235 6.27232 14.2685C6.27232 13.9134 5.9835 13.6246 5.62847 13.6246Z" fill="#EC2830"/>
<path d="M16.5946 13.6246C16.2395 13.6246 15.9507 13.9134 15.9507 14.2685C15.9507 14.6235 16.2395 14.9123 16.5946 14.9123C16.9496 14.9123 17.2384 14.6235 17.2384 14.2685C17.2384 13.9134 16.9496 13.6246 16.5946 13.6246Z" fill="#EC2830"/>
<path d="M12.9392 12.2954H8.28692C8.11488 12.2954 7.97537 12.4349 7.97537 12.607C7.97537 12.779 8.11484 12.9185 8.28692 12.9185H12.9392C13.1112 12.9185 13.2508 12.779 13.2508 12.607C13.2508 12.4349 13.1113 12.2954 12.9392 12.2954Z" fill="#EC2830"/>
<path d="M10.8334 6.73734C10.7117 6.6157 10.5144 6.6157 10.3928 6.73738L7.62232 9.50782L6.18108 8.06658C6.05941 7.94491 5.86215 7.94491 5.74052 8.06658C5.61884 8.18825 5.61884 8.38547 5.74052 8.50715L7.40206 10.1687C7.46288 10.2295 7.54262 10.2599 7.62232 10.2599C7.70203 10.2599 7.78181 10.2295 7.84259 10.1687L10.8333 7.17795C10.955 7.05623 10.955 6.85901 10.8334 6.73734Z" fill="#EC2830"/>
</g>
<defs>
<clipPath id="clip0_1_415">
<rect width="19.8968" height="19.8968" rx="9.94842" fill="white"/>
</clipPath>
</defs>
</svg>
